2.2Hz3min_grf.mot
version=1
nRows=27
nColumns 19
inDegrees=yes
endheader
time	1_ground_force_vx	1_ground_force_vy	1_ground_force_vz	1_ground_force_px	1_ground_force_py	1_ground_force_pz	1_ground_torque_x	1_ground_torque_y	1_ground_torque_z	2_ground_force_vx	2_ground_force_vy	2_ground_force_vz	2_ground_force_px	2_ground_force_py	2_ground_force_pz	2_ground_torque_x	2_ground_torque_y	2_ground_torque_z
            1.250000	           -0.090667	            2.521146	            0.607176	           -0.233013	            0.005581	           -0.255695	           -0.684753	            0.148870	           -0.264834	           -3.390753	           -4.361739	           31.944380	           -0.232311	            0.006130	           -0.833667	            1.697100	           -7.052843	           -0.666813
            1.250500	           -0.136899	            2.161392	            0.422320	           -0.233013	            0.005581	           -0.255695	           -0.639157	            0.130364	           -0.266969	           -3.060104	           -5.097483	           32.035469	           -0.232311	            0.006130	           -0.833667	            1.697136	           -7.071479	           -0.742281
            1.251000	            0.183516	            1.081040	            0.141750	           -0.233013	            0.005581	           -0.255695	           -0.532878	            0.102873	           -0.272427	           -3.064112	           -3.992426	           31.992483	           -0.232311	            0.006130	           -0.833667	            1.603182	           -7.053249	           -0.647923
            1.251500	           -0.044887	            1.620220	            0.511485	           -0.233013	            0.005581	           -0.255695	           -0.605347	            0.093765	           -0.338473	           -3.198618	           -5.650770	           32.127413	           -0.232311	            0.006130	           -0.833667	            1.640880	           -7.081673	           -0.591489
            1.252000	           -0.090484	            0.898951	            0.554363	           -0.233013	            0.005581	           -0.255695	           -0.531725	            0.186113	           -0.321391	           -3.157086	           -4.177414	           32.132650	           -0.232311	            0.006130	           -0.833667	            1.584338	           -7.043663	           -0.704432
            1.252500	            0.184346	            0.899398	            0.461969	           -0.233013	            0.005581	           -0.255695	           -0.508920	            0.186080	           -0.272123	           -3.581393	           -3.442343	           32.135458	           -0.232311	            0.006130	           -0.833667	            1.659513	           -7.052844	           -0.704497
            1.253000	           -0.136327	            0.898943	            0.554477	           -0.233013	            0.005581	           -0.255695	           -0.644409	            0.186151	           -0.341864	           -3.112312	           -3.624131	           31.946889	           -0.232311	            0.006130	           -0.833667	            1.603311	           -7.100177	           -0.742342
            1.253500	           -0.045034	            1.800682	            0.466403	           -0.233013	            0.005581	           -0.255695	           -0.584650	            0.139823	           -0.300738	           -3.156565	           -4.360391	           31.803496	           -0.232311	            0.006130	           -0.833667	            1.678503	           -7.109493	           -0.704708
            1.254000	           -0.182952	            1.440910	            0.281774	           -0.233013	            0.005581	           -0.255695	           -0.501467	            0.084228	           -0.288236	           -3.066147	           -3.439646	           31.900598	           -0.232311	            0.006130	           -0.833667	            1.678417	           -7.081269	           -0.666906
            1.254500	            0.184361	            1.439998	            0.510144	           -0.233013	            0.005581	           -0.255695	           -0.529988	            0.149104	           -0.272249	           -3.387388	           -5.282815	           32.034951	           -0.232311	            0.006130	           -0.833667	            1.697160	           -7.071681	           -0.685731
            1.255000	           -0.136833	            1.800861	            0.420774	           -0.233013	            0.005581	           -0.255695	           -0.564071	            0.130782	           -0.361131	           -3.203312	           -4.361397	           32.038157	           -0.232311	            0.006130	           -0.833667	            1.659666	           -7.090789	           -0.666932
            1.255500	            0.092366	            1.260305	            0.372030	           -0.233013	            0.005581	           -0.255695	           -0.636770	            0.047600	           -0.332716	           -3.343300	           -4.545216	           31.802919	           -0.232311	            0.006130	           -0.833667	            1.715988	           -7.081133	           -0.666922
            1.256000	           -0.091218	            1.801263	            0.328949	           -0.233013	            0.005581	           -0.255695	           -0.672558	            0.148863	           -0.264839	           -3.345876	           -3.809292	           31.993260	           -0.232311	            0.006130	           -0.833667	            1.753584	           -7.081199	           -0.610387
            1.256500	            0.000405	            0.900345	            0.233144	           -0.233013	            0.005581	           -0.255695	           -0.574256	            0.213705	           -0.279662	           -3.299006	           -3.809290	           32.040168	           -0.232311	            0.006130	           -0.833667	            1.716149	           -7.119146	           -0.610506
            1.257000	           -0.182740	            0.899917	            0.325311	           -0.233013	            0.005581	           -0.255695	           -0.559641	            0.177056	           -0.381665	           -3.344588	           -4.177254	           31.898089	           -0.232311	            0.006130	           -0.833667	            1.734764	           -7.071814	           -0.610346
            1.257500	            0.046248	            0.900354	            0.233031	           -0.233013	            0.005581	           -0.255695	           -0.536734	            0.102893	           -0.297073	           -3.244886	           -5.834418	           31.939064	           -0.232311	            0.006130	           -0.833667	            1.678350	           -7.071547	           -0.742273
            1.258000	            0.184035	            1.981188	            0.420751	           -0.233013	            0.005581	           -0.255695	           -0.639046	            0.084376	           -0.272275	           -3.112353	           -3.623796	           31.853033	           -0.232311	            0.006130	           -0.833667	            1.678290	           -7.052709	           -0.723356
            1.258500	            0.092220	            1.440767	            0.326948	           -0.233013	            0.005581	           -0.255695	           -0.559802	            0.084507	           -0.313957	           -3.155194	           -4.729022	           31.896038	           -0.232311	            0.006130	           -0.833667	            1.659735	           -7.118879	           -0.742434
            1.259000	           -0.045180	            1.981144	            0.421320	           -0.233013	            0.005581	           -0.255695	           -0.545262	            0.112099	           -0.300961	           -3.155859	           -4.544874	           31.896695	           -0.232311	            0.006130	           -0.833667	            1.640711	           -7.052778	           -0.742190
            1.259500	           -0.045261	            1.801075	            0.374691	           -0.233013	            0.005581	           -0.255695	           -0.599328	            0.157982	           -0.225431	           -3.442214	           -3.073205	           32.042856	           -0.232311	            0.006130	           -0.833667	            1.716032	           -7.099837	           -0.723540
            1.260000	           -0.182530	            1.620390	            0.465971	           -0.233013	            0.005581	           -0.255695	           -0.565915	            0.130762	           -0.363075	           -3.299047	           -3.808956	           31.946312	           -0.232311	            0.006130	           -0.833667	            1.584482	           -7.081541	           -0.685716
            1.260500	           -0.183015	            0.539975	            0.186198	           -0.233013	            0.005581	           -0.255695	           -0.478315	            0.176825	           -0.325460	           -3.388718	           -4.914519	           32.036265	           -0.232311	            0.006130	           -0.833667	            1.659572	           -7.062498	           -0.647981
            1.261000	            0.001444	            1.439176	            0.694022	           -0.233013	            0.005581	           -0.255695	           -0.650418	            0.167409	           -0.260892	           -3.297717	           -4.177252	           31.944997	           -0.232311	            0.006130	           -0.833667	            1.697204	           -7.090385	           -0.742349
            1.261500	           -0.273694	            1.259054	            0.648076	           -0.233013	            0.005581	           -0.255695	           -0.592141	            0.102749	           -0.310632	           -3.202085	           -4.728857	           31.802202	           -0.232311	            0.006130	           -0.833667	            1.753661	           -7.109356	           -0.667039
            1.262000	           -0.228681	            1.440705	            0.327744	           -0.233013	            0.005581	           -0.255695	           -0.484658	            0.102699	           -0.290153	           -3.390067	           -4.546055	           31.990651	           -0.232311	            0.006130	           -0.833667	            1.697203	           -7.081201	           -0.666914
            1.262500	            0.046862	            2.521172	            0.606835	           -0.233013	            0.005581	           -0.255695	           -0.497163	            0.176942	           -0.315710	           -3.202730	           -4.544876	           31.849787	           -0.232311	            0.006130	           -0.833667	            1.678427	           -7.090520	           -0.723490
            1.263000	           -0.091054	            0.899934	            0.325084	           -0.233013	            0.005581	           -0.255695	           -0.578165	            0.148961	           -0.283839	           -3.389403	           -4.730203	           31.989994	           -0.232311	            0.006130	           -0.833667	            1.659647	           -7.072287	           -0.553763
